<svg width="29" height="20" viewBox="0 0 29 20" fill="none" xmlns="http://www.w3.org/2000/svg">
<path d="M28.7625 2.22559C28.7625 2.62341 28.5946 3.00494 28.2957 3.28625C27.9968 3.56755 27.5915 3.72559 27.1688 3.72559H1.66876C1.24607 3.72559 0.840697 3.56755 0.541811 3.28625C0.242924 3.00494 0.0750122 2.62341 0.0750122 2.22559C0.0750122 1.82776 0.242924 1.44623 0.541811 1.16493C0.840697 0.883621 1.24607 0.725586 1.66876 0.725586H27.1688C27.5915 0.725586 27.9968 0.883621 28.2957 1.16493C28.5946 1.44623 28.7625 1.82776 28.7625 2.22559ZM28.7625 10.2256C28.7625 10.6234 28.5946 11.0049 28.2957 11.2862C27.9968 11.5675 27.5915 11.7256 27.1688 11.7256H1.66876C1.24607 11.7256 0.840697 11.5675 0.541811 11.2862C0.242924 11.0049 0.0750122 10.6234 0.0750122 10.2256C0.0750122 9.82776 0.242924 9.44623 0.541811 9.16493C0.840697 8.88362 1.24607 8.72559 1.66876 8.72559H27.1688C27.5915 8.72559 27.9968 8.88362 28.2957 9.16493C28.5946 9.44623 28.7625 9.82776 28.7625 10.2256ZM28.7625 18.2256C28.7625 18.6234 28.5946 19.0049 28.2957 19.2862C27.9968 19.5676 27.5915 19.7256 27.1688 19.7256H1.66876C1.24607 19.7256 0.840697 19.5676 0.541811 19.2862C0.242924 19.0049 0.0750122 18.6234 0.0750122 18.2256C0.0750122 17.8278 0.242924 17.4462 0.541811 17.1649C0.840697 16.8836 1.24607 16.7256 1.66876 16.7256H27.1688C27.5915 16.7256 27.9968 16.8836 28.2957 17.1649C28.5946 17.4462 28.7625 17.8278 28.7625 18.2256Z" fill="#171B6E"/>
</svg>
